<svg xmlns="http://www.w3.org/2000/svg" viewBox="0 0 808.18 142.64"><g id="Capa_2" data-name="Capa 2"><g id="Capa_1-2" data-name="Capa 1"><path d="M166.19,86.85c2.25.6,3.9,3,3.9,6,0,8.85-9.6,19.05-19.05,19.05a19.72,19.72,0,0,1-18.75-14.25c-1.65-5.1-2.1-13.8-2.1-22.8,0-7.2.3-14.55.6-20.55.15-2.55.75-10.8.75-18.6,0-8.7-.75-17.1-3.6-17.1-3,0-8.84,17.4-14.09,37.65-5.4,21-10,44.85-10,54.9v1.65a11.35,11.35,0,0,1-2.25.15A20.22,20.22,0,0,1,81.9,96.15c-.6-3.6-.6-24-.75-41.85-.15-19-.9-40.8-5.4-40.8C72.15,13.5,66,35.7,60.45,59c-6,24.9-11.1,52.35-11.4,59.85a4.62,4.62,0,0,1-1.5.15c-6.15,0-16.5-5.25-19.8-16.8C26.7,98.55,26.4,93,26.4,86.55c0-11.25,1.05-24.9,1.65-34.65.3-5.4,1.65-16.8,1.65-25.35,0-5.25-.6-9.45-2.1-10.5a4.53,4.53,0,0,0-2.4-.75c-2.1,0-4.65,1.5-7.2,3.15A30.7,30.7,0,0,1,8.85,23.1a10.08,10.08,0,0,1-2.7.45A6.74,6.74,0,0,1,0,19.5c2.1-4.05,12.3-13,21.3-14.85a18.47,18.47,0,0,1,3-.3c8.85,0,20.25,6.9,21.75,18.45a90.54,90.54,0,0,1,.45,11.7c0,17.55-2.25,42.45-2.25,49.65.45-3.6,4.5-27.75,9.9-49.5,3.75-14.85,8-27.15,12.3-31.8A8.07,8.07,0,0,1,72.9,0c9,0,20.4,9.9,22.95,21.15,2.7,12,4.05,33.6,4.05,46.35,0,2-.15,3.75-.15,5.25.45-2.7,4.35-19.5,8.85-35.55,3.9-13.8,8.4-27,12-29.55a10.31,10.31,0,0,1,6.59-2.25c10.2,0,19.8,14.1,21.3,25.35a80.61,80.61,0,0,1,.6,10.5c0,6.15-.45,12.3-.75,18.6-.15,4-.9,12.75-.9,21.3,0,8.1.75,19.8,5.55,19.8C158.39,101,165,92.25,166.19,86.85Z"/><path d="M162.9,82.5c0-7.2.75-15.15,1.35-23.25.75-8.4,1.8-17.1,1.8-25.8h1.2c4.2,0,10.2,2.1,13.5,9.15A25,25,0,0,1,182.55,53c0,3.9-.45,8.25-.75,12.9-.6,7.65-1.5,15.3-1.5,23.4,0,4.5.15,8.55,1.8,10.65a4,4,0,0,0,3.45,1.5c1.5,0,3.6-1.35,5.1-2.85a30.18,30.18,0,0,0,7.35-12c1.8,0,4.05,2.55,4.05,5.1a19.82,19.82,0,0,1-2.55,8.55c-4.2,7.5-10.05,11.85-16.5,11.85-9.3,0-15.6-5.7-17.85-12.3C163.05,93.45,162.9,88.2,162.9,82.5Zm18.6-75c3.6,2.25,6.3,5.7,6.3,9.9s-4.35,6.15-8.4,6.15a18.59,18.59,0,0,1-12.9-6,10.8,10.8,0,0,1-3-6.75,6.1,6.1,0,0,1,1.2-3.6c1.35-1.8,3.9-2.85,7.35-2.85A18.19,18.19,0,0,1,181.5,7.5Z"/><path d="M259.64,102.45c5.4,0,11.55-10.65,12.9-15.75,1.65.45,3.75,2.4,3.75,6.3a13.38,13.38,0,0,1-.45,3.3c-2.55,7.5-10,15.6-19.35,15.6-3.6,0-8.7-2-11.85-4.35a12.66,12.66,0,0,1-4.95-6.75,58.56,58.56,0,0,1-1.8-13.5c0-2,.15-3.9.3-6.3,0-.6.15-1.2.15-1.8-2.1,7.2-9.3,28.35-18.74,31.65a12.36,12.36,0,0,1-3.9.6c-5.1,0-10-3.45-13.65-9.15C198,96,195.3,86.85,195,77.25V75.6c0-15.3,6.15-33.75,18.6-38.7a20.77,20.77,0,0,1,7.94-1.5,23.3,23.3,0,0,1,19.05,10.05,45.44,45.44,0,0,0,.6-5.4c.15-1.5,1.2-2.25,2.85-2.25,4.65,0,13,5.4,13.2,12,0,1.5-.3,5.25-.75,9.75-.9,8.55-2,20.1-2,28.8,0,7.05.75,12.45,3,13.5A5.56,5.56,0,0,0,259.64,102.45ZM226.19,90.6c4.8-8.25,9.6-22,12.3-34.2-.45-4.8-4.35-11.55-9.3-11.55a7.51,7.51,0,0,0-5.25,2.55c-6.15,6.45-9.74,23.7-9.74,36,0,7.65,2.09,14.85,4.34,14.85S223.5,95.25,226.19,90.6Z"/><path d="M286,110.55a6.84,6.84,0,0,1-3.45.75c-4.8,0-9.9-4-11.4-8.1-1.8-4.5-2.4-14.85-2.4-25.8,0-6.15.15-14.4.3-20.25.15-4.8.3-9.15.3-12.6a40.21,40.21,0,0,0-.6-7.2,11.42,11.42,0,0,1,3.15-.45c4.35,0,8.25,2.7,10.65,6.6,3,4.5,3.3,10.65,3.3,17V66.3a68.91,68.91,0,0,1,4.5-11.55,24.53,24.53,0,0,1-.3-3.3,24.71,24.71,0,0,1,.6-5.4c1.05-4.35,2.7-7.65,4.95-9.45a4.71,4.71,0,0,1,3.15-1.05c4.8,0,11.25,5.1,11.25,11.1,0,4.05-6.15,11.1-6.15,11.1s2.7,7.8,9.9,9.3a5.1,5.1,0,0,0,1.5.15c4.8,0,9.3-4.2,10.5-9,2.55.3,4.2,2.55,4.2,6.15,0,7.65-7.05,12.3-15.6,12.3a23.54,23.54,0,0,1-19.8-10.2A71.11,71.11,0,0,0,289,78.15c-2.1,5.4-3.6,11.25-3.6,15.15C285.44,99.45,285.59,104.7,286,110.55Z"/><path d="M415.49,112.35c-7.2,0-15.15-5.85-17.4-14.4a56.15,56.15,0,0,1-1.65-14.25c0-7.35.9-14.7.9-22.8a30.6,30.6,0,0,0-.75-7.35c-.6-2.25-1.5-4-3.15-4-1.05,0-2.55,1.5-4.05,4.2-2.85,4.95-6.15,13.35-9,22.35-4.2,13-7.65,27-7.65,32.25v.9a17.13,17.13,0,0,1-4.95.75c-4.8,0-9.9-2.1-11.25-7.2a21.24,21.24,0,0,1-.45-4.65c0-5.25,1.05-12.45,1.35-21.15.15-3.3.15-6.9.15-10.2,0-9.15-.6-17-3.75-17s-8.4,13.05-12.75,27.3c-3.9,12.9-7,26.7-7,32.7a6.46,6.46,0,0,1-2.55.45c-5.25,0-13.65-4.2-14.1-9.9-.15-2.1-.3-5.1-.3-8.55,0-6.75.3-15.15.75-21.6.45-8.25,1.2-14.4,1.2-20.7a55.48,55.48,0,0,0-.75-9.75,9.67,9.67,0,0,1,3-.45c4.35,0,9.6,2.25,11.7,6.75.9,2,1.65,6.15,1.65,11.85,0,1.35,0,2.85-1.05,20.25a206,206,0,0,1,7.65-25.35c2.55-6.6,5.55-14.85,14.4-14.85,6.6,0,13.05,4.95,15.45,10.8,2.1,5.1,2.55,10.8,2.55,16.35,0,3.3-.15,6.45-.3,11,2.55-10.2,5.7-17.4,8.55-24.9,2.55-6.9,7.2-13.35,13.95-13.35a18.09,18.09,0,0,1,17.55,13.35,35.62,35.62,0,0,1,1.05,9.15c0,4.5-.45,9.3-.75,14.25-.15,3-.75,9.45-.75,15.3,0,5.55.45,10.65,2.55,12a3.53,3.53,0,0,0,2.4.75c2.25,0,4.5-1.8,6.6-4.35a40.7,40.7,0,0,0,6.6-12c1.65.3,3.75,2.4,3.75,6.15a13.38,13.38,0,0,1-.45,3.3c-2.1,7.35-9.9,14.55-15.6,16.2A11.7,11.7,0,0,1,415.49,112.35Z"/><path d="M488.84,102.45c5.4,0,11.55-10.65,12.9-15.75,1.65.45,3.75,2.4,3.75,6.3a13.38,13.38,0,0,1-.45,3.3c-2.55,7.5-10.05,15.6-19.35,15.6-3.6,0-8.7-2-11.85-4.35a12.66,12.66,0,0,1-4.95-6.75,58.56,58.56,0,0,1-1.8-13.5c0-2,.15-3.9.3-6.3,0-.6.15-1.2.15-1.8-2.1,7.2-9.3,28.35-18.75,31.65a12.36,12.36,0,0,1-3.9.6c-5.1,0-10.05-3.45-13.65-9.15-4.05-6.3-6.75-15.45-7.05-25V75.6c0-15.3,6.15-33.75,18.6-38.7a20.79,20.79,0,0,1,7.95-1.5,23.3,23.3,0,0,1,19.05,10.05,45.44,45.44,0,0,0,.6-5.4c.15-1.5,1.2-2.25,2.85-2.25,4.65,0,13.05,5.4,13.2,12,0,1.5-.3,5.25-.75,9.75-.9,8.55-1.95,20.1-1.95,28.8,0,7.05.75,12.45,3,13.5A5.56,5.56,0,0,0,488.84,102.45ZM455.39,90.6c4.8-8.25,9.6-22,12.3-34.2-.45-4.8-4.35-11.55-9.3-11.55a7.51,7.51,0,0,0-5.25,2.55c-6.15,6.45-9.75,23.7-9.75,36,0,7.65,2.1,14.85,4.35,14.85S452.69,95.25,455.39,90.6Z"/><path d="M540.29,94.35c0-7.2,1.5-16.65,1.5-19.5-3.75,11.4-8.25,24-13.8,30.9-2.4,3-5.55,5.55-9.9,5.55a15,15,0,0,1-9.75-4c-3.75-3.3-7-8.4-9.3-15.6a58,58,0,0,1-2.4-16.2,53.32,53.32,0,0,1,7.2-27.3c5-7.8,12.45-13.2,21.6-13.2a19.5,19.5,0,0,1,16.2,10,31.47,31.47,0,0,0,.9-5c.15-.75,1.5-1,3.15-1,4.35,0,10.95,2.55,13.2,6.45a5.49,5.49,0,0,1,.6,2.7c-.9,6.15-.3,10.8-.9,21.45-.45,8.25-1.2,27.9-1.2,29.7,3.15-2.25,6.15-4.5,8.7-6.6a39.3,39.3,0,0,0,7-7.2,7.12,7.12,0,0,1,3.75,6.15,10.69,10.69,0,0,1-2.25,5.7c-3.75,5.1-10.65,9.75-18.3,13.8-1.05,8.4-3.45,17.25-8.4,23.09s-13.65,8.4-21.6,8.4c-5.4,0-17.55-1.65-17.55-9.9a10.5,10.5,0,0,1,1.5-5c3.15-4.94,10.8-8.69,17.7-12,4.65-2.25,12-6.15,12-6.15C540,106.8,540.29,102.15,540.29,94.35Zm-8.4-12.45c3.45-7.65,6-16.8,8.4-25.5-.9-6.6-5.55-11.85-10-11.85-6.6,0-12,15.9-13.5,28.2a89.88,89.88,0,0,0-.6,10.35c0,10.35,2.25,15.3,5.25,15.3S527.84,90.6,531.89,81.9Zm7.35,37.65c-2.25.9-11.4,5.24-13.8,7-.9.6-2.7,1.95-2.7,3.15,0,1.65,2.4,2.7,5.25,2.7a9.41,9.41,0,0,0,8.1-4.19A33.53,33.53,0,0,0,539.24,119.55Z"/><path d="M586.79,110.55a6.84,6.84,0,0,1-3.45.75c-4.8,0-9.9-4-11.4-8.1-1.8-4.5-2.4-14.85-2.4-25.8,0-6.15.15-14.4.3-20.25.15-4.8.3-9.15.3-12.6a40.21,40.21,0,0,0-.6-7.2,11.42,11.42,0,0,1,3.15-.45c4.35,0,8.25,2.7,10.65,6.6,3,4.5,3.3,10.65,3.3,17V66.3a68.91,68.91,0,0,1,4.5-11.55,24.53,24.53,0,0,1-.3-3.3,24.71,24.71,0,0,1,.6-5.4c1-4.35,2.7-7.65,4.95-9.45a4.71,4.71,0,0,1,3.15-1.05c4.8,0,11.25,5.1,11.25,11.1,0,4.05-6.15,11.1-6.15,11.1s2.7,7.8,9.9,9.3a5.1,5.1,0,0,0,1.5.15c4.8,0,9.3-4.2,10.5-9,2.55.3,4.2,2.55,4.2,6.15,0,7.65-7,12.3-15.6,12.3a23.54,23.54,0,0,1-19.8-10.2,71.11,71.11,0,0,0-5.55,11.7c-2.1,5.4-3.6,11.25-3.6,15.15C586.19,99.45,586.34,104.7,586.79,110.55Z"/><path d="M682.64,102.45c5.4,0,11.55-10.65,12.9-15.75,1.65.45,3.75,2.4,3.75,6.3a13.38,13.38,0,0,1-.45,3.3c-2.55,7.5-10.05,15.6-19.35,15.6-3.6,0-8.7-2-11.85-4.35a12.66,12.66,0,0,1-4.95-6.75,58.56,58.56,0,0,1-1.8-13.5c0-2,.15-3.9.3-6.3,0-.6.15-1.2.15-1.8-2.1,7.2-9.3,28.35-18.75,31.65a12.36,12.36,0,0,1-3.9.6c-5.1,0-10.05-3.45-13.65-9.15-4-6.3-6.75-15.45-7-25V75.6c0-15.3,6.15-33.75,18.6-38.7a20.79,20.79,0,0,1,7.95-1.5,23.3,23.3,0,0,1,19.05,10.05,45.44,45.44,0,0,0,.6-5.4c.15-1.5,1.2-2.25,2.85-2.25,4.65,0,13.05,5.4,13.2,12,0,1.5-.3,5.25-.75,9.75-.9,8.55-2,20.1-2,28.8,0,7.05.75,12.45,3,13.5A5.56,5.56,0,0,0,682.64,102.45ZM649.19,90.6c4.8-8.25,9.6-22,12.3-34.2-.45-4.8-4.35-11.55-9.3-11.55a7.51,7.51,0,0,0-5.25,2.55c-6.15,6.45-9.75,23.7-9.75,36,0,7.65,2.1,14.85,4.35,14.85S646.49,95.25,649.19,90.6Z"/><path d="M788.83,112.35c-7.2,0-15.14-5.85-17.39-14.4a56.15,56.15,0,0,1-1.65-14.25c0-7.35.9-14.7.9-22.8a30.6,30.6,0,0,0-.75-7.35c-.6-2.25-1.5-4-3.15-4-1,0-2.55,1.5-4,4.2-2.85,4.95-6.15,13.35-9,22.35-4.2,13-7.65,27-7.65,32.25v.9a17.13,17.13,0,0,1-5,.75c-4.8,0-9.9-2.1-11.25-7.2a21.24,21.24,0,0,1-.45-4.65c0-5.25,1-12.45,1.35-21.15.15-3.3.15-6.9.15-10.2,0-9.15-.6-17-3.75-17s-8.4,13.05-12.75,27.3c-3.9,12.9-7.05,26.7-7.05,32.7a6.46,6.46,0,0,1-2.55.45c-5.25,0-13.65-4.2-14.1-9.9-.15-2.1-.3-5.1-.3-8.55,0-6.75.3-15.15.75-21.6.45-8.25,1.2-14.4,1.2-20.7a55.48,55.48,0,0,0-.75-9.75,9.67,9.67,0,0,1,3-.45c4.35,0,9.6,2.25,11.7,6.75.9,2,1.65,6.15,1.65,11.85,0,1.35,0,2.85-1,20.25a206,206,0,0,1,7.65-25.35C717.14,46.2,720.14,38,729,38c6.6,0,13,4.95,15.45,10.8,2.1,5.1,2.55,10.8,2.55,16.35,0,3.3-.15,6.45-.3,11,2.55-10.2,5.7-17.4,8.55-24.9,2.55-6.9,7.2-13.35,14-13.35a18.09,18.09,0,0,1,17.55,13.35,35.62,35.62,0,0,1,1,9.15c0,4.5-.46,9.3-.75,14.25-.16,3-.75,9.45-.75,15.3,0,5.55.45,10.65,2.54,12a3.53,3.53,0,0,0,2.4.75c2.25,0,4.5-1.8,6.6-4.35a40.7,40.7,0,0,0,6.6-12c1.65.3,3.75,2.4,3.75,6.15a13.38,13.38,0,0,1-.45,3.3c-2.1,7.35-9.9,14.55-15.6,16.2A11.65,11.65,0,0,1,788.83,112.35Z"/></g></g></svg>