<svg xmlns="http://www.w3.org/2000/svg" viewBox="0 0 614.41 182.16"><g id="Capa_2" data-name="Capa 2"><g id="Capa_1-2" data-name="Capa 1"><path d="M19.24,127.46a26.74,26.74,0,0,1-6.44-3.31,21.15,21.15,0,0,1-4.75-4.32A34.83,34.83,0,0,1,2,108,47.51,47.51,0,0,1,0,93.81,55.31,55.31,0,0,1,8.73,64.92a51.6,51.6,0,0,1,7.46-8.82,31.37,31.37,0,0,1,8.3-6.1,14.37,14.37,0,0,1,3.23-1.36,12.9,12.9,0,0,1,3.05-.33h1.86A12.86,12.86,0,0,1,41.7,52.2c2.2,2.38,4,6.27,5.51,11.7a45.49,45.49,0,0,1,.84,5.17,50.65,50.65,0,0,1,.34,5.85,42.19,42.19,0,0,1-.34,5.5,22.43,22.43,0,0,1-.84,4.16,33.84,33.84,0,0,1-2.72,6.1A37.28,37.28,0,0,1,40.09,97a27.1,27.1,0,0,1-5.6,5,11.39,11.39,0,0,1-6.44,2q-3.9,0-4.23-4.07a4.84,4.84,0,0,1,0-1.86,6.87,6.87,0,0,1,.76-2,23.33,23.33,0,0,1,1.86-2.8Q27.71,91.7,29.92,89a75,75,0,0,0,6.69-10.42,23.72,23.72,0,0,0,2.63-9.07,18.47,18.47,0,0,0-1.53-10.42q-2.19-4.49-5.93-4.49c-2.26,0-4.91,1.18-8,3.56a34.07,34.07,0,0,0-8,9,43.5,43.5,0,0,0-5.17,11.1A45.2,45.2,0,0,0,9.07,90.85a50.65,50.65,0,0,0,1,11.27,19.24,19.24,0,0,0,3.73,7.71,21,21,0,0,0,4.74,4.66A12.45,12.45,0,0,0,24,116.1a18.32,18.32,0,0,0,12.71-4.74,58.07,58.07,0,0,0,9.15-10.51,86.64,86.64,0,0,0,4.92-7.71q2-3.65,4.15-8.22T59.49,74Q62,67.63,65.34,58.14,68.4,49,71.19,42t5.34-12.28a77.48,77.48,0,0,1,5.17-9.33,61.37,61.37,0,0,1,5.51-7.2c1.35-1.58,1.92-2.65,1.69-3.22-.23-.11-.9.09-2,.59L83,12.37a30.17,30.17,0,0,0-5.09,3.14A30.41,30.41,0,0,0,73.48,20q-8.15,9.49-10,13.56c-.68,1.47-1.36,2.2-2,2.2q-2.88,0-1.86-7.29a34.88,34.88,0,0,1,3-10.25A22.51,22.51,0,0,1,68.73,11a23.6,23.6,0,0,1,3.14-2.38A17,17,0,0,1,75.51,7a44.84,44.84,0,0,1,4.92-1.27q2.88-.6,7.12-1.27c2.25-.45,4.6-1,7-1.53s4.15-1,5.17-1.35A15.36,15.36,0,0,1,104.83,0,3.09,3.09,0,0,1,107,1a2.53,2.53,0,0,1,.25,2,30,30,0,0,1-1.61,4.15,39.61,39.61,0,0,0-2.8,7.12,28.46,28.46,0,0,0-.93,7.54,58.91,58.91,0,0,0,.93,9.66q.93,5.5,2.8,13.48c.68,3,1.24,5.59,1.7,7.62s.79,4,1,5.85.4,3.84.51,5.93.23,4.72.34,7.88l.34,13.56,2.71-6.44a268.51,268.51,0,0,1,12.37-25.17,163.26,163.26,0,0,1,13.9-21.27,83.11,83.11,0,0,1,6-7.29q4-4.39,8.14-8.73t7.79-7.71a30,30,0,0,1,5-4.07,3.17,3.17,0,0,1,2-.67,2.31,2.31,0,0,1,2.37,2,6,6,0,0,1-1,4.58c-.34.56-1,1.55-1.86,3s-1.81,2.86-2.71,4.33a96.89,96.89,0,0,0-4.75,9.32q-2.72,5.93-5.59,12.79t-5.43,13.9q-2.53,7-4.06,12.46-2,6.78-3.65,13.73t-2.8,13q-1.19,6-1.69,10.42a24.09,24.09,0,0,0-.17,6.27,37.27,37.27,0,0,0,1,4.32,2,2,0,0,0,1.18,1.27.36.36,0,0,1,.26.09.32.32,0,0,0,.25.08q2.72,0,9.15-12a141.23,141.23,0,0,1,7.12-12.8c2.15-3.33,3.67-5.11,4.58-5.34a2.38,2.38,0,0,1,1-.17c.9,0,1.38.57,1.44,1.7a6.64,6.64,0,0,1-1.44,3.9q-.35.84-2.46,4.83t-4.49,8.9q-2.55,4.9-4.75,8.81a29.41,29.41,0,0,1-3,4.75,16.13,16.13,0,0,1-4.07,2.71,11,11,0,0,1-4.74,1.35q-6.11,0-9.58-7.54t-2.12-19.24a153.49,153.49,0,0,1,6.36-27.45,211.78,211.78,0,0,1,12.29-29.67q3.39-7.11,4.74-9.91c.9-1.87,1.24-2.8,1-2.8s-.45.34-1,1a136.72,136.72,0,0,0-12,15.68q-6,9.06-11.61,19.49T114.83,84q-4.9,11.44-8.64,22.63-1.53,4.41-2.46,7.12A35.93,35.93,0,0,1,102,118a5.29,5.29,0,0,1-1.53,2,2.84,2.84,0,0,1-1.61.51q-1.35,0-1.35-2.37a13.35,13.35,0,0,1,.67-4.24,28.48,28.48,0,0,0,1.44-4.83c.51-2.21,1-4.6,1.53-7.21s1-5.19,1.44-7.79a64.83,64.83,0,0,0,.85-6.61A93.54,93.54,0,0,0,103.9,77a87.86,87.86,0,0,0-.85-10.5c-.5-3.67-1.27-7.69-2.28-12s-2.32-9.35-3.9-15a45,45,0,0,1-1.19-6.27,58.78,58.78,0,0,1-.51-7.63l-.51-8.81-2.54,3.9a69,69,0,0,0-3.47,6.44Q87,30.51,85.26,35.17T81.36,46.1Q79.25,52.37,76.7,61q-2,6.95-3.65,12.12t-3.13,9.23q-1.53,4.08-3,7.29T63.82,96.1a88,88,0,0,1-12,18.48q-6.7,7.78-13.31,11a25.48,25.48,0,0,1-5.17,2,50.82,50.82,0,0,1-5.51.77H26A20.28,20.28,0,0,1,19.24,127.46Z"/><path d="M151.64,181.65a27.67,27.67,0,0,1-9.77-4.17,22.6,22.6,0,0,1-6.89-7.39,20.07,20.07,0,0,1-1.7-4.34,27.28,27.28,0,0,1-.17-5.69,34.58,34.58,0,0,1,.34-5.7A19.47,19.47,0,0,1,135,150a28.62,28.62,0,0,1,6.63-8.08,48.53,48.53,0,0,1,10-6.54,56.67,56.67,0,0,1,10.63-4.08,47.68,47.68,0,0,1,11.64-1.19c.83,0,1.72,0,2.68.09s1.81.08,2.71.08h9.06a6.82,6.82,0,0,0,2-.17,25,25,0,0,0,.85-3.91q.67-3.75,1.28-8.16t1.1-8.25c.34-2.55.4-3.94.17-4.16a2,2,0,0,0-.51.85l-1.53,2a31,31,0,0,1-8.16,8.84,15,15,0,0,1-8.5,3.06,9.44,9.44,0,0,1-5.61-1.7,13.82,13.82,0,0,1-5-7.57,34.92,34.92,0,0,1-1.28-12.07,73.33,73.33,0,0,1,2.47-15,79.64,79.64,0,0,1,6.2-16.06q4.94-10.55,9.52-10.54a5,5,0,0,1,3.57,1.7A4,4,0,0,1,186.07,61a7.2,7.2,0,0,1-.09,2.89,49,49,0,0,1-1.27,5.1q-.94,3.15-2.64,8.25a202,202,0,0,0-6.12,23q-1.87,9.78-.68,12.84c.34.79,1.25,1.19,2.72,1.19a4.75,4.75,0,0,0,2.64-.85,24.6,24.6,0,0,0,3.82-3.74A46.23,46.23,0,0,0,192.61,98a81.13,81.13,0,0,0,5.95-15.3q3.57-13.77,8.84-18.53,2.39-2,3.57-2a3.28,3.28,0,0,1,2.21,1.19,3.52,3.52,0,0,1,.94,2.55A40.18,40.18,0,0,1,212.67,72a105.06,105.06,0,0,0-3.31,15.38q-1.79,11-3.66,25.76-.67,4.76-1.1,8.33c-.29,2.38-.43,3.68-.43,3.91s.71,0,2.13-.94a55.38,55.38,0,0,0,5.35-4.33,72.78,72.78,0,0,0,5.27-6q2.72-3.41,5.19-7.23t4.59-7.82A46.89,46.89,0,0,0,230,91.38c1.13-3.29,2.27-4.93,3.4-4.93a1.93,1.93,0,0,1,1.36.68,2.3,2.3,0,0,1,.51,1.87,41.54,41.54,0,0,1-1.36,4.59,85.36,85.36,0,0,1-11.81,21.93A53.6,53.6,0,0,1,206,130.31a11.92,11.92,0,0,0-2.63,2.12,7.35,7.35,0,0,0-.94,3.15,25.3,25.3,0,0,1-1.1,5.1q-.94,3.06-2.13,6.37c-.79,2.21-1.59,4.34-2.38,6.38a32.43,32.43,0,0,1-2.21,4.76,50.49,50.49,0,0,1-16.32,17.59,36.48,36.48,0,0,1-26.69,5.87ZM168,171.5a32.67,32.67,0,0,0,13.69-12.16q5.52-8.42,7.9-20.82l.34-2.21H178.67c-3.06,0-5.75.05-8.07.17a62.56,62.56,0,0,0-6.29.59,30.36,30.36,0,0,0-5.1,1.19,44.43,44.43,0,0,0-4.85,2,31.18,31.18,0,0,0-11.22,8.5,16.91,16.91,0,0,0-4.08,10.71,17.57,17.57,0,0,0,1,6.46,11.91,11.91,0,0,0,3.4,4.59,16.7,16.7,0,0,0,6.29,3.06,40.32,40.32,0,0,0,7.14.51,30.77,30.77,0,0,0,5.87-.68A41.73,41.73,0,0,0,168,171.5Z"/><path d="M258.91,133.83a32.63,32.63,0,0,1-12.5-6,32,32,0,0,1-8.24-11.14c-.68-1.36-1.22-2.49-1.62-3.4a13.15,13.15,0,0,1-.85-2.63,21,21,0,0,1-.34-3c-.05-1.13-.08-2.6-.08-4.42a51.6,51.6,0,0,1,2.55-16.57A67.56,67.56,0,0,1,246,70.76a53.26,53.26,0,0,1,5.78-7.14,49.63,49.63,0,0,1,7.39-6.37,38.75,38.75,0,0,1,8.5-4.51,25.71,25.71,0,0,1,9.1-1.7q11.73,0,12.58,14.11a34.21,34.21,0,0,1-3.4,18.62,30.19,30.19,0,0,1-12.41,13l-4.25,2.38L275.4,102q2.55,1.36,5.78,2.81c2.15,1,3.91,1.73,5.27,2.29l4.93,2,1.36-1.7a21,21,0,0,0,3.4-7.39,50.7,50.7,0,0,0,1.7-10.8q.17-3.39.09-6.2a51.29,51.29,0,0,0-.6-6.12q-.51-3.31-1.53-7.31t-2.55-9.61q-4.75-17-3.32-28.22a29.07,29.07,0,0,1,9.27-18.36Q307.36,6,317.39,6a24.8,24.8,0,0,1,5.53.43,17.19,17.19,0,0,1,4.16,1.95Q334.22,13,334.22,22A20.57,20.57,0,0,1,333,29.11a27.7,27.7,0,0,1-4.42,7.31q-4.25,6.12-8.33,6.12a2.29,2.29,0,0,1-1-.17q-2-.51-1.95-3.06A9.87,9.87,0,0,1,319.26,34q4.94-6.45,4.93-11.73a10.06,10.06,0,0,0-.34-3.14,5.1,5.1,0,0,0-1.53-2,7.31,7.31,0,0,0-4.08-1.53,11.77,11.77,0,0,0-5.69,2A18.43,18.43,0,0,0,307.36,22a19.88,19.88,0,0,0-3.74,12.67Q303.79,42,308,55.29a129.19,129.19,0,0,1,5.87,27.8,55.84,55.84,0,0,1-2,21.16,49.51,49.51,0,0,0-1.36,5c-.11.74.17,1.1.85,1.1a14.11,14.11,0,0,0,6.29-1.7,38,38,0,0,0,6.63-4.25,70.91,70.91,0,0,0,6-5.35,38.14,38.14,0,0,0,4.33-5c1-1.58,2.1-2.38,3.23-2.38a2.37,2.37,0,0,1,1.87,1.19q2,3.06-6.63,11.9a41.43,41.43,0,0,1-9.44,7.23,53.44,53.44,0,0,1-11.81,4.5,24,24,0,0,0-5.53,2,28.35,28.35,0,0,0-4.5,3.65,46.22,46.22,0,0,1-15.3,9.44,49.7,49.7,0,0,1-18,3.48A36.1,36.1,0,0,1,258.91,133.83Zm15.64-13.94a27.44,27.44,0,0,0,3.82-1.36c1.31-.57,2.53-1.13,3.66-1.7a17.75,17.75,0,0,0,2.72-1.61c.68-.51,1-.88.85-1.11a19.24,19.24,0,0,0-3.74-2.21q-3.57-1.86-8.5-4.42-4.25-2-6.63-3.31a33.27,33.27,0,0,1-3.57-2.13,5.37,5.37,0,0,1-1.53-1.44,3.25,3.25,0,0,1-.34-1.62,2.57,2.57,0,0,1,.43-2.46,26.93,26.93,0,0,1,4.16-2.81q10.71-6.45,13.77-13.43a27.15,27.15,0,0,0,2-6.37,41.62,41.62,0,0,0,.68-6.38,19.43,19.43,0,0,0-.5-5.35,5,5,0,0,0-2-3.15,5.84,5.84,0,0,0-3.4-.85,18,18,0,0,0-7.91,2A37.94,37.94,0,0,0,261,65a49.64,49.64,0,0,0-11,13.09A59.81,59.81,0,0,0,246.33,87a57.11,57.11,0,0,0-2.21,9.09,34.92,34.92,0,0,0-.34,8.33,16.79,16.79,0,0,0,1.7,6.46q5.78,10.71,18.7,10.71A32.7,32.7,0,0,0,274.55,119.89Z"/><path d="M382.5,128.22a13.7,13.7,0,0,1-6.38-6,25.73,25.73,0,0,1-3.14-10l-.34-4.42-2.55,5.1a39.18,39.18,0,0,1-5.78,8.59c-2.27,2.55-4.36,4.1-6.29,4.67a9.26,9.26,0,0,1-3.74.68,12.25,12.25,0,0,1-6.63-2,14.85,14.85,0,0,1-6.46-10,44.3,44.3,0,0,1-.68-5.86,48.65,48.65,0,0,1,.08-6.38,32.77,32.77,0,0,1,.94-5.78,53.31,53.31,0,0,1,3.65-9.86,64.81,64.81,0,0,1,6.38-10.71A40.34,40.34,0,0,1,360,67.62a16.41,16.41,0,0,1,9.95-3.49,15.07,15.07,0,0,1,7,1.87,17.4,17.4,0,0,1,5.61,4.42c.34.57.68.85,1,.85s1.7-1,3.74-3.06q4.42-4.92,7.65-4.93a3.92,3.92,0,0,1,3.74,2.55,3.26,3.26,0,0,1,.59,2.47,40.15,40.15,0,0,1-1.95,5c-.91,2-1.87,4.37-2.89,7s-2,5.27-2.81,8-1.64,5.39-2.38,8-1.33,5-1.78,7.14q-3.75,18.19,1.7,18.19,6.12,0,14.79-18,8.16-16,11.39-16,4.24,0-.51,6.8-1.19,1.88-3.57,6t-4.42,8.16c-.91,1.7-2,3.72-3.4,6a65.4,65.4,0,0,1-4.59,6.8,28,28,0,0,1-5.7,5.61,10.94,10.94,0,0,1-6.54,2.29A10.73,10.73,0,0,1,382.5,128.22Zm-23.8-9.86c.56-.45,1.27-1.08,2.12-1.87a19.06,19.06,0,0,0,2.3-2.55q1-1.53,3.82-7t5.61-11.47q2.81-6,5-11t2.21-5.61c0-.9-.65-2-2-3.4A9,9,0,0,0,374.17,73a2,2,0,0,0-.85-.17q-3.06,0-7.23,5.44A72.74,72.74,0,0,0,358,92.35a59.74,59.74,0,0,0-2.81,7.91,52.79,52.79,0,0,0-1.53,7.56,31.09,31.09,0,0,0-.17,6.38,8.21,8.21,0,0,0,1.28,4.16c.57.57,1,.85,1.36.85A6.44,6.44,0,0,0,358.7,118.36Z"/><path d="M426.53,126.18q-5.1-2.39-7.23-8.84t-1.61-18.19A137.71,137.71,0,0,1,423.89,65,119.73,119.73,0,0,1,438.43,34Q447.1,21.29,456,14.32t16.58-7a13.19,13.19,0,0,1,9.86,4.25,12.75,12.75,0,0,1,3.74,8.93,26.39,26.39,0,0,1-2.47,11.39,50,50,0,0,1-7.82,12.15,67.31,67.31,0,0,1-12.66,11.39q-1.87,1.36-4.68,3.06c-1.87,1.14-3.77,2.21-5.69,3.23s-3.77,2-5.53,2.81-3.26,1.5-4.5,2a3.06,3.06,0,0,0-2.21,1.87c-.46,1-1.25,3.35-2.38,7q-3.4,12.08-5.1,20.15a94.45,94.45,0,0,0-2,13.85q-.35,6.12.25,8.42c.4,1.53,1.22,2.29,2.47,2.29s2.38-.85,3.74-2.55a77.78,77.78,0,0,0,5.78-9.18c.45-.68,1.3-2.09,2.55-4.25s2.6-4.33,4.08-6.54a66.23,66.23,0,0,1,4.42-6q2.2-2.64,3.4-2.64,3.9.85-1.53,8.16L453.05,102q-1.87,2.81-3.06,4.67-6.3,11.22-10.54,15.9T431,127.2A11.26,11.26,0,0,1,426.53,126.18ZM450.67,57a89.2,89.2,0,0,0,16.49-11.9,46.19,46.19,0,0,0,10.37-13.43q3.57-6.8,2.63-11.73c-.62-3.28-2.41-4.93-5.35-4.93a2.59,2.59,0,0,0-.68.09,2.68,2.68,0,0,1-.68.08,7.71,7.71,0,0,0-3,1.79,54.5,54.5,0,0,0-4.25,4q-2.3,2.39-4.59,5.1t-4,5.1a53.66,53.66,0,0,0-3.06,5.19q-1.87,3.48-3.83,7.31T447.18,51q-1.62,3.57-2.46,5.78c-1,2.16-1.19,3.23-.51,3.23a9.64,9.64,0,0,0,2.21-.93Z"/><path d="M470.38,123.29a19.12,19.12,0,0,1-7-6.12,23.56,23.56,0,0,1-3.73-9,34.58,34.58,0,0,1-.34-11,41.19,41.19,0,0,1,3.39-12c.57-1.47,1.2-3.25,1.87-5.35A34.28,34.28,0,0,0,466,74.33a24.42,24.42,0,0,1,6.2-12.66c3.12-3.23,7.39-4.85,12.84-4.85a22.19,22.19,0,0,1,13.68,4.85,29.64,29.64,0,0,1,9.61,13,24.29,24.29,0,0,1,1.52,5.78,47,47,0,0,1,.52,7,56.71,56.71,0,0,1-.43,7,24.36,24.36,0,0,1-1.44,6l-1.71,4.42,4.42-.34a27.25,27.25,0,0,0,9.35-3.06,45.38,45.38,0,0,0,9.19-6.29q2.37-2.2,3.39-3a3.27,3.27,0,0,1,1.87-.77,2,2,0,0,1,.86.17c1.13.68,1.55,1.51,1.27,2.47s-1.39,2.52-3.31,4.67a45.68,45.68,0,0,1-12.67,9.18,31,31,0,0,1-13.69,3.57,9.89,9.89,0,0,0-4.08.6,22.66,22.66,0,0,0-4.25,3.65q-10.37,9.52-20.73,9.52A17.62,17.62,0,0,1,470.38,123.29Zm18-10.54c.91-.56,1.73-1,2.47-1.44a3.26,3.26,0,0,0,1.27-.94c0-.34-.36-.73-1.1-1.19s-1.67-1-2.81-1.53-2.46-1.33-4-2.29a43.37,43.37,0,0,1-4-2.81c-1.13-.9-2.09-1.67-2.89-2.29a5.91,5.91,0,0,0-1.36-.94c-.11,0-.22.37-.34,1.11s-.22,1.56-.34,2.46a14.67,14.67,0,0,0,.17,6.63q.86,3.24,2.21,4.08a7.39,7.39,0,0,0,3.91.85,16.36,16.36,0,0,0,3.58-.42A10.18,10.18,0,0,0,488.4,112.75ZM501.49,98.3A26.44,26.44,0,0,0,503,92.69a38.14,38.14,0,0,0,.51-6.29,42.64,42.64,0,0,0-.42-6.12,18.61,18.61,0,0,0-1.45-5.1,23.57,23.57,0,0,0-1.86-2.89,45.34,45.34,0,0,0-3-3.65,25.6,25.6,0,0,0-3.4-3.15,5.53,5.53,0,0,0-3.15-1.36c-.22,0-.11.34.34,1a4.13,4.13,0,0,1,.94,3.83,13.3,13.3,0,0,1-2.29,5.18c-1.37,1.7-2.47,3.12-3.32,4.25s-1.53,2.1-2,2.89l-1.36,2.13c-.4.62-.82,1.39-1.28,2.29l-1.87,3.74,2,2.38A16.86,16.86,0,0,0,485,95.67a60.17,60.17,0,0,0,4.92,3.65,35.05,35.05,0,0,0,4.76,2.72,6.34,6.34,0,0,0,3.24.85Q499.63,102.73,501.49,98.3Z"/><path d="M583.09,125.22a10.17,10.17,0,0,1-4.33-2.38,11.87,11.87,0,0,1-3.32-3.91Q572.91,114,573.06,106a77.71,77.71,0,0,1,3.07-18.53,45.67,45.67,0,0,0,1.18-4.42q.35-1.71,0-1.53c-.11.11-.84,1.19-2.21,3.23s-3,4.53-4.92,7.48-4,6.15-6.13,9.6-4.13,6.66-5.95,9.61a37.9,37.9,0,0,1-5.69,7.73,7.07,7.07,0,0,1-4.85,2.13h-.34q-6.79-.18-8.92-8.33t.93-22.27q2.89-14.28,5.7-21.17t6.71-9.6a9.42,9.42,0,0,1,4.59-1.87,5.28,5.28,0,0,1,3.57,1.53,5.68,5.68,0,0,1,1.79,1.95,6.06,6.06,0,0,1,.59,2.89,19.47,19.47,0,0,1-.67,4.51c-.46,1.81-1.08,4.13-1.88,7A239.84,239.84,0,0,0,553,103.8q-.18,2.55,0,2.55c.11,0,.33-.17.67-.51s1.42-1.85,3.24-4.51,3.85-5.69,6.11-9.09,4.62-6.8,7.06-10.2,4.28-5.84,5.52-7.31q2-2.55,4.34-5.19t4.42-4.93c1.42-1.53,2.66-2.83,3.74-3.91a11.48,11.48,0,0,1,2.29-2,2.8,2.8,0,0,1,1.53-.34q3.41,0,5.1,3.91a11.71,11.71,0,0,1,.69,2.8,15,15,0,0,1-.09,3.49,29.61,29.61,0,0,1-1.11,4.84q-.84,2.8-2.21,7.06a117.77,117.77,0,0,0-4,15.21,75.33,75.33,0,0,0-1.44,14c0,4,.39,6,1.18,6,.57,0,1.76-.63,3.57-1.87a18,18,0,0,0,4.85-5.19q2.46-3.66,7.4-12.49Q610.64,88,612.51,88a2,2,0,0,1,1.7,1c.34.45.25,1.41-.26,2.89s-1.67,4.08-3.48,7.82q-3.24,6.28-5.87,10.79a52.72,52.72,0,0,1-5.1,7.4,26.51,26.51,0,0,1-4.93,4.59,15.88,15.88,0,0,1-5.35,2.38c-.91.22-1.62.42-2.13.59a4.59,4.59,0,0,1-1.45.26A12,12,0,0,1,583.09,125.22Z"/></g></g></svg>